<?xml version="1.0" encoding="utf-8"?>
<!-- Generator: Adobe Illustrator 24.1.0, SVG Export Plug-In . SVG Version: 6.00 Build 0)  -->
<svg version="1.1" id="Capa_1" xmlns="http://www.w3.org/2000/svg" xmlns:xlink="http://www.w3.org/1999/xlink" x="0px" y="0px"
	 viewBox="0 0 512 512" style="enable-background:new 0 0 512 512;" xml:space="preserve">
<style type="text/css">
	.st0{fill:#FFFFFF;stroke:#F20A0A;stroke-width:11.3386;stroke-miterlimit:10;}
	.st1{fill:none;stroke:#F20A0A;stroke-width:12.7922;stroke-linecap:round;stroke-linejoin:round;stroke-miterlimit:10;}
</style>
<g>
	<path d="M503.7,494.1L485,420.5c0-0.1,0-0.1-0.1-0.2c-8.9-31.4-34.5-55.3-66.5-62L320,337.5v-12.3c24.7-14.3,40-40.7,40-69.2h4
		c15.5,0,28-12.5,28-28v-24c0-4.2-0.9-8.3-2.7-12l2.7,0c4.4,0,8-3.6,8-8v-24c0-4.4-3.6-8-8-8c0,0,0,0,0,0l-16,0v-8
		c0-50.9-32-96.2-80-113.2V16c0-4.4-3.6-8-8-8l-64,0c-4.4,0-8,3.6-8,8v14.9c-22.1,7.9-41.5,22-55.7,40.7
		C144.5,92.4,136,117.8,136,144v8l-16,0h0c-4.4,0-8,3.6-8,8v24c0,4.4,3.6,8,8,8c0,0,0,0,0,0l2.7,0c-1.8,3.7-2.7,7.8-2.7,12v24
		c0,15.5,12.5,28,28,28h4c0,28.6,15.2,55,40,69.2v12.3l-98.5,20.7C61.6,364.9,36,388.7,27,420.1c0,0.1,0,0.2-0.1,0.2L8.2,494
		c-1.1,4.3,1.5,8.6,5.8,9.7c0.7,0.2,1.3,0.3,2,0.3l392,0.1h0l88,0c4.4,0,8-3.6,8-8C503.9,495.4,503.9,494.7,503.7,494.1L503.7,494.1
		z M376,228c0,6.6-5.4,12-12,12h-4l0-48h4c6.6,0,12,5.4,12,12L376,228z M232.1,36.8V24l48,0v12.8l0,51.2l-48,0L232.1,36.8z M152,144
		c-0.1-22.6,7.3-44.7,21-62.7c11.2-14.7,26-26.1,43-33.3l0,48c0,4.4,3.6,8,8,8l64,0c4.4,0,8-3.6,8-8c0,0,0,0,0,0l0-48
		c38.8,16.2,64,54,64,96v8l-104,0l-104,0L152,144z M128,176v-8l256,0.1v8L128,176z M152,240h-4c-6.6,0-12-5.4-12-12v-24
		c0-6.6,5.4-12,12-12h4L152,240z M186.7,301.2c-12-12-18.8-28.3-18.7-45.3l0-64h26.1c-4.4,7.6-1.8,17.4,5.8,21.9
		c7.6,4.4,17.4,1.8,21.9-5.8c1.4-2.4,2.2-5.2,2.2-8c0-2.8-0.7-5.6-2.1-8l68.3,0c-4.4,7.6-1.8,17.4,5.8,21.9
		c7.6,4.4,17.4,1.8,21.9-5.8c1.4-2.4,2.1-5.2,2.1-8c0-2.8-0.7-5.6-2.1-8H344l0,56v8c0,22.9-12.2,44-32,55.4l0-39.4
		c0-22.1-17.9-40-40-40h-32c-22.1,0-40,17.9-40,40l0,39.4C195.1,308.6,190.7,305.2,186.7,301.2L186.7,301.2z M296.2,317.9
		c-5.3,1.4-10.8,2.1-16.2,2.1h0l-48,0c-5.5,0-11-0.7-16.3-2.1c0.2-0.7,0.3-1.3,0.3-2l0-43.9c0-13.2,10.7-24,24-24c0,0,0,0,0,0h32
		c13.2,0,24,10.8,24,24l0,43.9C296,316.6,296.1,317.3,296.2,317.9z M247.9,488l-136,0l0-32c0-4.4-3.6-8-8-8s-8,3.6-8,8l0,32l-69.7,0
		l16.2-63.5c7.3-25.6,28.3-45.1,54.4-50.6l95.9-20.2c4.3,28.3,26.9,50.2,55.2,53.8L247.9,488z M256,392c-26.5,0-48-21.5-48-48v-11.7
		c7.8,2.5,15.9,3.7,24,3.7l48,0h0c8.1,0,16.2-1.2,24-3.7V344C303.9,370.5,282.5,392,256,392L256,392z M415.9,488l0-32
		c0-4.4-3.6-8-8-8s-8,3.6-8,8l0,32l-136,0l0-80.5c28.3-3.6,50.9-25.5,55.3-53.8l95.9,20.2c26.1,5.5,47,24.9,54.4,50.6l16.2,63.5
		L415.9,488z"/>
	<path d="M272,264h-32c-4.4,0-8,3.6-8,8s3.6,8,8,8l32,0c4.4,0,8-3.6,8-8S276.4,264,272,264L272,264z"/>
	<path d="M288,424c-4.4,0-8,3.6-8,8s3.6,8,8,8s8-3.6,8-8S292.4,424,288,424z"/>
	<path d="M287.9,464c-4.4,0-8,3.6-8,8s3.6,8,8,8s8-3.6,8-8S292.4,464,287.9,464z"/>
</g>
<g>
	<circle class="st0" cx="423.5" cy="419.5" r="83"/>
	<line class="st1" x1="384.5" y1="376.5" x2="472.5" y2="464.5"/>
	<line class="st1" x1="472.5" y1="376.5" x2="384.5" y2="464.5"/>
</g>
</svg>
