<svg height="512" viewBox="0 0 512 512" width="512" xmlns="http://www.w3.org/2000/svg"><g><path d="m503.69 494.09-18.73-73.64c-.02-.07-.04-.14-.06-.22a87.82 87.82 0 0 0 -66.47-61.96l-98.45-20.75v-12.27a80.036 80.036 0 0 0 40.02-69.22h4.01a28.044 28.044 0 0 0 28-28v-24a27.887 27.887 0 0 0 -2.7-12l2.71.01a8.006 8.006 0 0 0 8-8v-24a7.989 7.989 0 0 0 -7.99-8l-16-.01v-8a120 120 0 0 0 -79.97-113.16v-14.86a8 8 0 0 0 -8-8l-64-.02a8.006 8.006 0 0 0 -8 8v14.86a121.071 121.071 0 0 0 -55.74 40.75 118.934 118.934 0 0 0 -24.29 72.37v8l-16-.01h-.01a8.017 8.017 0 0 0 -8 8v24a7.989 7.989 0 0 0 8 8l2.7.01a27.827 27.827 0 0 0 -2.71 12v24a28.022 28.022 0 0 0 27.99 28h4a80.028 80.028 0 0 0 39.98 69.25v12.27l-98.47 20.7a87.8 87.8 0 0 0 -66.49 61.92.977.977 0 0 0 -.06.23l-18.77 73.62a7.994 7.994 0 0 0 7.75 9.98l391.99.1h.01l88 .02a8 8 0 0 0 7.75-9.97zm-127.68-266.06a12.016 12.016 0 0 1 -12 12h-4.01l.02-48h4a12 12 0 0 1 11.99 12zm-143.95-191.26v-12.78l48 .02v12.78l-.02 51.22-48-.02zm-80.03 107.2a103 103 0 0 1 21.04-62.7 105.037 105.037 0 0 1 42.98-33.27l-.01 47.99a8 8 0 0 0 8 8l64 .02a7.989 7.989 0 0 0 8-8l.01-48.01a103.986 103.986 0 0 1 63.98 96.03v8l-104-.03-104-.03zm-24.01 32v-8l256 .06v8zm23.98 64h-4a12.007 12.007 0 0 1 -11.99-12v-24a12.022 12.022 0 0 1 12-12h4.01zm34.73 61.27a63.624 63.624 0 0 1 -18.73-45.26l.02-64h26.15a16 16 0 1 0 29.84 8.01 15.849 15.849 0 0 0 -2.15-8l68.31.02a15.994 15.994 0 1 0 29.84 8.01 15.821 15.821 0 0 0 -2.15-8h26.16l-.02 56v8a64.045 64.045 0 0 1 -32.01 55.39l.01-39.4a40.06 40.06 0 0 0 -39.99-40.01h-32.02a40 40 0 0 0 -39.99 39.99l-.01 39.43a64.4 64.4 0 0 1 -13.26-10.18zm109.52 16.67a64.058 64.058 0 0 1 -16.25 2.1h-.02l-48-.02a64.267 64.267 0 0 1 -16.26-2.09 7.8 7.8 0 0 0 .26-2.01l.02-43.9a23.985 23.985 0 0 1 24-23.99h32a24.04 24.04 0 0 1 24 24.01l-.02 43.9a7.783 7.783 0 0 0 .27 2zm-48.31 170.09-136-.04.01-32a8 8 0 1 0 -16 0l-.01 32-69.71-.02 16.2-63.53a71.853 71.853 0 0 1 54.38-50.56l95.9-20.16a64.005 64.005 0 0 0 55.25 53.8zm8.02-96a48 48 0 0 1 -47.98-48.01v-11.69a79.365 79.365 0 0 0 24 3.69l48 .02h.02a79.857 79.857 0 0 0 23.98-3.68v11.68a48.055 48.055 0 0 1 -48 47.99zm159.98 96.04.01-32a8 8 0 1 0 -16 0l-.01 32-136-.04.02-80.52a64.126 64.126 0 0 0 55.28-53.76l95.89 20.21a71.84 71.84 0 0 1 54.35 50.58l16.17 63.55z"/><path d="m272 264h-32a8 8 0 0 0 0 16l32 .008a8 8 0 0 0 0-16z"/><path d="m287.957 424.008a8 8 0 1 0 8 8 8 8 0 0 0 -8-8z"/><path d="m287.947 464.008a8 8 0 1 0 8 8 8 8 0 0 0 -8-8z"/></g></svg>