<?xml version="1.0" encoding="utf-8"?>
<!-- Generator: Adobe Illustrator 24.1.0, SVG Export Plug-In . SVG Version: 6.00 Build 0)  -->
<svg version="1.1" id="Capa_1" xmlns="http://www.w3.org/2000/svg" xmlns:xlink="http://www.w3.org/1999/xlink" x="0px" y="0px"
	 viewBox="0 0 90 80" style="enable-background:new 0 0 90 80;" xml:space="preserve">
<style type="text/css">
	.st0{fill:#F4F5F5;stroke:#FFB200;stroke-width:3.4016;stroke-miterlimit:10;}
	.st1{fill:#3E3D3F;}
</style>
<path class="st0" d="M4.4,67.7L39.5,6.9c2.5-4.4,8.8-4.4,11.3,0l35.1,60.8c2.5,4.4-0.6,9.8-5.7,9.8H10C5,77.5,1.8,72.1,4.4,67.7z"/>
<g>
	<path class="st1" d="M46.3,54.2H44c-1.4,0-2.6-1.1-2.6-2.5l-0.9-21.2c-0.1-1.5,1.1-2.7,2.6-2.7h4c1.5,0,2.7,1.2,2.6,2.7l-0.9,21.2
		C48.8,53.1,47.7,54.2,46.3,54.2z M40.5,61.9c0-1.3,0.4-2.4,1.2-3.1c0.8-0.7,1.9-1.1,3.4-1.1c1.5,0,2.6,0.4,3.4,1.1
		c0.8,0.7,1.2,1.8,1.2,3.1c0,1.3-0.4,2.3-1.2,3.1c-0.8,0.7-1.9,1.1-3.3,1.1c-1.4,0-2.6-0.4-3.4-1.1C40.9,64.2,40.5,63.2,40.5,61.9z"
		/>
</g>
</svg>
