<?xml version="1.0" encoding="utf-8"?>
<!-- Generator: Adobe Illustrator 24.1.0, SVG Export Plug-In . SVG Version: 6.00 Build 0)  -->
<svg version="1.1" id="Capa_1" xmlns="http://www.w3.org/2000/svg" xmlns:xlink="http://www.w3.org/1999/xlink" x="0px" y="0px"
	 viewBox="0 0 700 700" style="enable-background:new 0 0 700 700;" xml:space="preserve">
<style type="text/css">
	.st0{opacity:0.79;}
	.st1{fill:#FFFFFF;}
	.st2{fill:url(#SVGID_1_);}
	.st3{fill:#212121;}
</style>
<g>
	<g class="st0">
		<circle class="st1" cx="350" cy="350" r="337.38"/>
		<linearGradient id="SVGID_1_" gradientUnits="userSpaceOnUse" x1="0" y1="350" x2="700" y2="350">
			<stop  offset="0" style="stop-color:#B6EAFD"/>
			<stop  offset="1" style="stop-color:#0592C6"/>
		</linearGradient>
		<path class="st2" d="M350,700c-47.24,0-93.08-9.26-136.24-27.51c-41.68-17.63-79.11-42.86-111.25-75
			c-32.14-32.14-57.37-69.57-75-111.25C9.26,443.08,0,397.24,0,350s9.26-93.08,27.51-136.24c17.63-41.68,42.86-79.11,75-111.25
			c32.14-32.14,69.57-57.37,111.25-75C256.92,9.26,302.76,0,350,0s93.08,9.26,136.24,27.51c41.68,17.63,79.11,42.86,111.25,75
			c32.14,32.14,57.37,69.57,75,111.25C690.74,256.92,700,302.76,700,350s-9.26,93.08-27.51,136.24
			c-17.63,41.68-42.86,79.11-75,111.25c-32.14,32.14-69.57,57.37-111.25,75C443.08,690.74,397.24,700,350,700z M350,25.24
			c-86.75,0-168.3,33.78-229.64,95.12S25.24,263.25,25.24,350s33.78,168.3,95.12,229.64S263.25,674.76,350,674.76
			s168.3-33.78,229.64-95.12S674.76,436.75,674.76,350s-33.78-168.3-95.12-229.64S436.75,25.24,350,25.24z"/>
	</g>
	<g>
		<path class="st3" d="M346.41,510.1c85.55,0,155.14-69.6,155.14-155.14s-69.6-155.14-155.14-155.14s-155.14,69.6-155.14,155.14
			S260.86,510.1,346.41,510.1L346.41,510.1z M271.76,473.7v-53.09c0-19.69,13.68-36.23,32.02-40.65l-10.19,40.76
			c-1.38,5.53,0.36,11.38,4.54,15.26c2.93,2.72,6.74,4.16,10.62,4.16c0.43,0,0.86-0.02,1.29-0.06l22.96,38.27
			c2.85,4.75,7.86,7.59,13.4,7.59s10.55-2.84,13.4-7.59l22.96-38.27c0.43,0.04,0.86,0.06,1.29,0.06c3.88,0,7.69-1.45,10.62-4.16
			c4.19-3.88,5.93-9.72,4.54-15.26l-10.19-40.76c18.35,4.42,32.02,20.96,32.02,40.65v53.09c-21.63,13.65-47.23,21.56-74.65,21.56
			C318.99,495.26,293.39,487.35,271.76,473.7L271.76,473.7z M296.38,281.1v-8.21c0-14.01,11.4-25.41,25.41-25.41h49.24
			c14.01,0,25.41,11.4,25.41,25.41v8.21c0,0.43-0.35,0.79-0.79,0.79h-98.48C296.73,281.88,296.38,281.53,296.38,281.1L296.38,281.1z
			 M304.59,296.72h83.64v25.41c0,11.3-4.44,21.89-12.5,29.82c-8.06,7.92-18.7,12.19-30.04,12c-22.66-0.38-41.1-19.5-41.1-42.62
			V296.72z M381.66,424.54l-23.69-7.9l18.13-27.2l8.72,34.88c0.03,0.14,0.11,0.45-0.23,0.77c-0.34,0.32-0.65,0.21-0.78,0.17
			l-2.11-0.7C381.69,424.55,381.68,424.55,381.66,424.54L381.66,424.54z M311.11,424.56l-2.11,0.7c-0.13,0.04-0.44,0.15-0.78-0.17
			c-0.34-0.32-0.26-0.63-0.23-0.77l8.72-34.88l18.13,27.2l-23.7,7.9C311.13,424.55,311.12,424.55,311.11,424.56L311.11,424.56z
			 M346.41,407.24l-18.96-28.44h37.92L346.41,407.24z M346.41,428.43l21.71,7.24l-21.03,35.05c-0.07,0.11-0.23,0.38-0.67,0.38
			c-0.45,0-0.61-0.27-0.67-0.38l-21.03-35.05L346.41,428.43z M346.41,214.66c77.36,0,140.3,62.94,140.3,140.3
			c0,43.38-19.79,82.22-50.81,107.97v-42.32c0-29.51-22.69-53.82-51.53-56.42c0.6-0.54,1.19-1.09,1.77-1.66
			c10.92-10.74,16.93-25.09,16.93-40.4v-27.29c4.88-2.65,8.21-7.82,8.21-13.75v-8.21c0-22.19-18.06-40.25-40.25-40.25h-49.24
			c-22.19,0-40.25,18.05-40.25,40.25v8.21c0,5.93,3.32,11.1,8.21,13.75v26.47c0,16.94,7.39,32.28,19.06,42.85
			c-29.02,2.43-51.89,26.81-51.89,56.45v42.32c-31.02-25.76-50.81-64.6-50.81-107.97C206.1,277.6,269.04,214.66,346.41,214.66
			L346.41,214.66z"/>
		<path class="st3" d="M213.48,232.55c-3.13-2.65-7.81-2.27-10.46,0.86c-28.75,33.88-44.58,77.05-44.58,121.55
			c0,103.65,84.32,187.97,187.97,187.97s187.97-84.32,187.97-187.97s-84.32-187.97-187.97-187.97c-44.49,0-87.66,15.83-121.54,44.57
			c-3.13,2.65-3.51,7.33-0.86,10.46c2.65,3.12,7.33,3.51,10.46,0.86c31.2-26.47,70.96-41.05,111.94-41.05
			c95.46,0,173.13,77.67,173.13,173.13s-77.67,173.13-173.13,173.13s-173.13-77.66-173.13-173.13c0-40.99,14.58-80.75,41.06-111.95
			C216.99,239.88,216.61,235.2,213.48,232.55L213.48,232.55z"/>
		<path class="st3" d="M586,305.32l-25.09-3.13c-0.32-0.04-0.58-0.27-0.66-0.59c-5.31-21.37-13.8-41.77-25.21-60.62
			c-0.17-0.28-0.15-0.63,0.04-0.89l15.59-20.04c4.83-6.21,4.28-15.09-1.28-20.65l-47.78-47.78c-5.56-5.56-14.44-6.12-20.65-1.28
			l-20.14,15.67c-0.25,0.2-0.6,0.22-0.89,0.04c-18.83-11.34-39.18-19.76-60.49-25.02c-0.32-0.08-0.55-0.34-0.59-0.66l-3.16-25.35
			c-0.97-7.81-7.64-13.7-15.51-13.7h-67.57c-7.87,0-14.53,5.89-15.51,13.69l-3.16,25.35c-0.04,0.32-0.27,0.58-0.59,0.66
			c-21.31,5.27-41.66,13.69-60.49,25.02c-0.28,0.17-0.63,0.15-0.89-0.04l-20.14-15.67c-6.21-4.83-15.08-4.28-20.65,1.28
			l-47.78,47.78c-5.56,5.56-6.11,14.44-1.28,20.65l15.59,20.04c0.2,0.26,0.22,0.6,0.04,0.89c-11.41,18.85-19.9,39.25-25.21,60.62
			c-0.08,0.32-0.34,0.55-0.66,0.59l-25.09,3.13c-7.81,0.97-13.69,7.64-13.69,15.51v67.57c0,7.87,5.89,14.53,13.69,15.51l24.92,3.11
			c0.32,0.04,0.58,0.27,0.66,0.59c5.27,21.48,13.73,41.98,25.15,60.94c0.17,0.28,0.15,0.63-0.05,0.89l-15.36,19.74
			c-4.83,6.21-4.28,15.09,1.28,20.65l47.78,47.78c5.56,5.56,14.44,6.11,20.65,1.28l19.64-15.29c0.26-0.2,0.6-0.22,0.89-0.04
			c18.99,11.5,39.54,20.03,61.07,25.34c0.32,0.08,0.55,0.34,0.59,0.66l3.07,24.65c0.97,7.81,7.64,13.69,15.51,13.69h67.57
			c7.87,0,14.53-5.89,15.51-13.69l3.07-24.65c0.04-0.32,0.27-0.58,0.59-0.66c6.34-1.56,12.68-3.43,18.84-5.55
			c3.88-1.33,5.94-5.56,4.6-9.43c-1.33-3.87-5.56-5.93-9.43-4.6c-5.74,1.98-11.65,3.72-17.56,5.18
			c-6.24,1.54-10.97,6.86-11.76,13.23l-3.07,24.65c-0.05,0.39-0.38,0.69-0.78,0.69h-67.57c-0.4,0-0.73-0.3-0.78-0.69l-3.07-24.65
			c-0.79-6.37-5.52-11.69-11.76-13.23c-20.08-4.95-39.24-12.9-56.94-23.63c-5.51-3.34-12.62-2.92-17.69,1.03l-19.64,15.29
			c-0.31,0.24-0.76,0.22-1.04-0.06l-47.78-47.78c-0.28-0.28-0.31-0.73-0.06-1.04l15.36-19.74c3.94-5.06,4.36-12.16,1.04-17.66
			c-10.65-17.68-18.54-36.79-23.45-56.82c-1.53-6.25-6.85-10.99-13.24-11.79l-24.92-3.11c-0.39-0.05-0.69-0.38-0.69-0.78v-67.57
			c0-0.4,0.3-0.73,0.69-0.78l25.09-3.13c6.36-0.79,11.68-5.51,13.22-11.74c4.95-19.92,12.86-38.94,23.5-56.52
			c3.33-5.51,2.92-12.62-1.03-17.69l-15.59-20.04c-0.24-0.31-0.21-0.76,0.06-1.04l47.78-47.78c0.28-0.28,0.73-0.31,1.04-0.06
			l20.14,15.67c5.06,3.94,12.16,4.36,17.66,1.05c17.55-10.57,36.53-18.42,56.39-23.33c6.24-1.54,10.96-6.86,11.76-13.23l3.16-25.35
			c0.05-0.39,0.38-0.69,0.78-0.69h67.57c0.4,0,0.73,0.3,0.78,0.69l3.16,25.35c0.79,6.37,5.52,11.69,11.76,13.23
			c19.87,4.91,38.84,12.76,56.39,23.33c5.5,3.31,12.6,2.89,17.66-1.05l20.14-15.67c0.31-0.24,0.76-0.21,1.04,0.07l47.78,47.78
			c0.28,0.28,0.31,0.73,0.06,1.04l-15.6,20.04c-3.95,5.07-4.36,12.18-1.03,17.69c10.64,17.58,18.55,36.59,23.5,56.52
			c1.55,6.23,6.86,10.94,13.22,11.74l25.09,3.13c0.39,0.05,0.69,0.38,0.69,0.78v67.57c0,0.4-0.3,0.73-0.69,0.78l-24.92,3.11
			c-6.38,0.8-11.7,5.53-13.24,11.79c-4.91,20.02-12.8,39.14-23.45,56.82c-3.32,5.5-2.89,12.6,1.05,17.66l15.36,19.74
			c0.24,0.31,0.22,0.76-0.06,1.04l-47.78,47.78c-0.28,0.28-0.73,0.31-1.04,0.06l-19.64-15.29c-5.07-3.95-12.18-4.36-17.69-1.03
			c-4.23,2.56-8.61,5-13.01,7.25c-3.65,1.86-5.1,6.33-3.24,9.98c1.86,3.65,6.33,5.1,9.98,3.24c4.72-2.41,9.42-5.03,13.96-7.77
			c0.28-0.17,0.63-0.15,0.89,0.04l19.64,15.29c6.21,4.83,15.09,4.28,20.65-1.28l47.78-47.78c5.56-5.56,6.11-14.44,1.28-20.65
			l-15.36-19.74c-0.2-0.26-0.22-0.6-0.05-0.89c11.43-18.96,19.89-39.46,25.15-60.94c0.08-0.32,0.34-0.55,0.66-0.59l24.92-3.11
			c7.81-0.97,13.69-7.64,13.69-15.51v-67.57C599.69,312.96,593.8,306.3,586,305.32L586,305.32z"/>
	</g>
</g>
</svg>
