<?xml version="1.0" encoding="utf-8"?>
<!-- Generator: Adobe Illustrator 24.1.0, SVG Export Plug-In . SVG Version: 6.00 Build 0)  -->
<svg version="1.1" id="Capa_1" xmlns="http://www.w3.org/2000/svg" xmlns:xlink="http://www.w3.org/1999/xlink" x="0px" y="0px"
	 viewBox="0 0 700 700" style="enable-background:new 0 0 700 700;" xml:space="preserve">
<style type="text/css">
	.st0{opacity:0.79;}
	.st1{fill:#FFFFFF;}
	.st2{fill:url(#SVGID_1_);}
	.st3{fill:#212121;}
</style>
<g>
	<g class="st0">
		<circle class="st1" cx="350" cy="350" r="337.38"/>
		<linearGradient id="SVGID_1_" gradientUnits="userSpaceOnUse" x1="0" y1="350" x2="700" y2="350">
			<stop  offset="0" style="stop-color:#B6EAFD"/>
			<stop  offset="1" style="stop-color:#0592C6"/>
		</linearGradient>
		<path class="st2" d="M350,700c-47.24,0-93.08-9.26-136.24-27.51c-41.68-17.63-79.11-42.86-111.25-75
			c-32.14-32.14-57.37-69.57-75-111.25C9.26,443.08,0,397.24,0,350s9.26-93.08,27.51-136.24c17.63-41.68,42.86-79.11,75-111.25
			c32.14-32.14,69.57-57.37,111.25-75C256.92,9.26,302.76,0,350,0s93.08,9.26,136.24,27.51c41.68,17.63,79.11,42.86,111.25,75
			c32.14,32.14,57.37,69.57,75,111.25C690.74,256.92,700,302.76,700,350s-9.26,93.08-27.51,136.24
			c-17.63,41.68-42.86,79.11-75,111.25c-32.14,32.14-69.57,57.37-111.25,75C443.08,690.74,397.24,700,350,700z M350,25.24
			c-86.75,0-168.3,33.78-229.64,95.12S25.24,263.25,25.24,350s33.78,168.3,95.12,229.64S263.25,674.76,350,674.76
			s168.3-33.78,229.64-95.12S674.76,436.75,674.76,350s-33.78-168.3-95.12-229.64S436.75,25.24,350,25.24z"/>
	</g>
	<g>
		<g>
			<path class="st3" d="M246.87,213.87c0-6.93-5.64-12.58-12.57-12.58h-26.67c-6.93,0-12.58,5.64-12.58,12.58v26.67
				c0,6.93,5.64,12.58,12.58,12.58h26.67c6.93,0,12.57-5.64,12.57-12.58L246.87,213.87L246.87,213.87z M234.48,240.54
				c0,0.1-0.08,0.19-0.19,0.19h-26.67c-0.1,0-0.19-0.08-0.19-0.19v-26.67c0-0.1,0.08-0.19,0.19-0.19h26.67
				c0.1,0,0.19,0.08,0.19,0.19L234.48,240.54L234.48,240.54z"/>
			<path class="st3" d="M313.17,213.87c0-6.93-5.64-12.58-12.57-12.58h-26.67c-6.93,0-12.58,5.64-12.58,12.58v26.67
				c0,6.93,5.64,12.58,12.58,12.58h26.67c6.93,0,12.57-5.64,12.57-12.58L313.17,213.87z M300.78,240.54c0,0.1-0.08,0.19-0.19,0.19
				h-26.67c-0.1,0-0.19-0.08-0.19-0.19v-26.67c0-0.1,0.08-0.19,0.19-0.19h26.67c0.1,0,0.19,0.08,0.19,0.19V240.54z"/>
			<path class="st3" d="M246.87,282.39c0-6.93-5.64-12.58-12.57-12.58h-26.67c-6.93,0-12.58,5.64-12.58,12.58v26.67
				c0,6.93,5.64,12.58,12.58,12.58h26.67c6.93,0,12.57-5.64,12.57-12.58L246.87,282.39L246.87,282.39z M234.48,309.06
				c0,0.1-0.08,0.19-0.19,0.19h-26.67c-0.1,0-0.19-0.08-0.19-0.19v-26.67c0-0.1,0.08-0.19,0.19-0.19h26.67
				c0.1,0,0.19,0.08,0.19,0.19L234.48,309.06L234.48,309.06z"/>
			<path class="st3" d="M313.17,282.39c0-6.93-5.64-12.58-12.57-12.58h-26.67c-6.93,0-12.58,5.64-12.58,12.58v26.67
				c0,6.93,5.64,12.58,12.58,12.58h26.67c6.93,0,12.57-5.64,12.57-12.58L313.17,282.39z M300.78,309.06c0,0.1-0.08,0.19-0.19,0.19
				h-26.67c-0.1,0-0.19-0.08-0.19-0.19v-26.67c0-0.1,0.08-0.19,0.19-0.19h26.67c0.1,0,0.19,0.08,0.19,0.19V309.06z"/>
			<path class="st3" d="M234.29,338.34h-26.67c-6.93,0-12.58,5.64-12.58,12.58v26.67c0,6.93,5.64,12.58,12.58,12.58h26.67
				c6.93,0,12.57-5.64,12.57-12.58v-26.67C246.87,343.98,241.23,338.34,234.29,338.34z M234.48,377.58c0,0.1-0.08,0.19-0.19,0.19
				h-26.67c-0.1,0-0.19-0.08-0.19-0.19v-26.67c0-0.1,0.08-0.19,0.19-0.19h26.67c0.1,0,0.19,0.08,0.19,0.19L234.48,377.58
				L234.48,377.58z"/>
			<path class="st3" d="M300.59,338.34h-26.67c-6.93,0-12.58,5.64-12.58,12.58v26.67c0,6.93,5.64,12.58,12.58,12.58h26.67
				c6.93,0,12.57-5.64,12.57-12.58v-26.67C313.17,343.98,307.53,338.34,300.59,338.34L300.59,338.34z M300.78,377.58
				c0,0.1-0.08,0.19-0.19,0.19h-26.67c-0.1,0-0.19-0.08-0.19-0.19v-26.67c0-0.1,0.08-0.19,0.19-0.19h26.67
				c0.1,0,0.19,0.08,0.19,0.19V377.58z"/>
			<path class="st3" d="M550.93,515.55h-9.19V463.2c0-20.85-13.98-39.52-33.98-45.4l-37.52-11.01c-1.06-0.99-2.28-1.81-3.61-2.4
				l-7.79-3.47c-2.2-0.98-4.55-1.42-6.88-1.35V382.1c12.33-8.99,20.92-22.86,22.78-38.86c6.11-1.51,10.65-7.04,10.65-13.6v-16.89
				v-32.41c0-11.38-9.09-20.68-20.39-21.03c-0.61-11.06-9.8-19.87-21.01-19.87h-51.15c-4.71,0-9.24,0.82-13.44,2.31
				c0.04-0.4,0.06-0.81,0.06-1.22v-26.67c0-6.93-5.64-12.58-12.57-12.58h-26.67c-6.93,0-12.58,5.64-12.58,12.58v26.67
				c0,6.93,5.64,12.58,12.58,12.58h22.39c-4.17,4.72-7.26,10.42-8.87,16.7h-13.52c-6.93,0-12.58,5.64-12.58,12.58v26.67
				c0,6.93,5.64,12.58,12.58,12.58h12.27v8.01c0,3.28,1.14,6.31,3.03,8.7h-15.3c-6.93,0-12.58,5.64-12.58,12.58v26.67
				c0,6.93,5.64,12.57,12.58,12.57h26.67c6.93,0,12.57-5.64,12.57-12.57v-0.95c2.01,1.98,4.17,3.81,6.45,5.48v17.43
				c-2.3-0.06-4.63,0.39-6.8,1.36l-7.64,3.43c-1.32,0.59-2.53,1.41-3.58,2.4l-37.74,11.08c-20.01,5.87-33.99,24.54-33.99,45.4v4.21
				c0,3.42,2.77,6.19,6.19,6.19c3.42,0,6.19-2.77,6.19-6.19v-4.21c0-15.39,10.32-29.17,25.09-33.51l30.91-9.07
				c0.63,1.75,1.65,3.39,3.05,4.8l21.16,21.19c0.02,0.02,0.04,0.04,0.06,0.06c2.62,2.55,6.01,3.84,9.42,3.84
				c0.79,0,1.59-0.07,2.38-0.21l4.39,7.55l-10.23,57.7h-47.46v-13.46c0-3.42-2.77-6.19-6.19-6.19c-3.42,0-6.19,2.77-6.19,6.19v13.46
				h-26.38v-19.18c0-3.42-2.77-6.19-6.19-6.19c-3.42,0-6.19,2.77-6.19,6.19v19.18h-25.78v-72.29h0.78c3.42,0,6.19-2.77,6.19-6.19
				c0-3.42-2.77-6.19-6.19-6.19h-74.58c-3.42,0-6.19,2.77-6.19,6.19c0,3.42,2.77,6.19,6.19,6.19h0.78v72.29h-22.43v-324.4
				c0-5.16,4.2-9.36,9.36-9.36h205.98c5.16,0,9.36,4.2,9.36,9.36v25.12c0,3.42,2.77,6.19,6.19,6.19c3.42,0,6.19-2.77,6.19-6.19
				v-25.12c0-11.05-8.29-20.19-18.97-21.56v-22.35c0-8.4-6.84-15.24-15.24-15.24H196.73c-8.4,0-15.24,6.84-15.24,15.24v22.35
				c-10.68,1.37-18.97,10.51-18.97,21.56v325.02c-8.5,2.18-14.8,9.91-14.8,19.08c0,10.86,8.84,19.7,19.7,19.7h383.51
				c10.86,0,19.7-8.84,19.7-19.7S561.8,515.55,550.93,515.55z M196.73,144.39h181.05c1.57,0,2.85,1.28,2.85,2.85v22.16H193.88
				v-22.16C193.88,145.67,195.16,144.39,196.73,144.39L196.73,144.39z M529.35,463.2v52.35h-26.4v-13.46c0-3.42-2.77-6.19-6.19-6.19
				c-3.42,0-6.19,2.77-6.19,6.19v13.46h-47.43l-10.24-57.77l4.45-7.98c0.83,0.16,1.67,0.24,2.51,0.24c3.38,0,6.76-1.27,9.39-3.81
				l21.17-20.62c1.46-1.42,2.51-3.12,3.16-4.94l30.7,9.01C519.04,434.03,529.35,447.81,529.35,463.2L529.35,463.2z M415.06,450.5
				l-3.9-6.7l8.31-6.94l7.38,6.31l-4.09,7.32L415.06,450.5L415.06,450.5z M453.8,412.23l7.79,3.47c0.39,0.18,0.51,0.72,0.18,1.04
				l-21.14,20.59c-0.42,0.4-1.06,0.42-1.5,0.04l-9.81-8.39l21.11-16.35C451.4,411.89,452.68,411.74,453.8,412.23L453.8,412.23z
				 M443.99,251.83c4.77,0,8.65,3.88,8.65,8.65c0,6.18,5.03,11.21,11.21,11.21h0.5c4.77,0,8.65,3.88,8.65,8.65v26.22h-4.06
				c-2.28,0-4.13-1.85-4.13-4.13v-5.65c0-9.88-8.11-17.12-17.04-17.12c-1.81,0-3.63,0.29-5.42,0.88c-15.08,4.99-31.7,4.99-46.81,0
				c-11.07-3.66-22.46,4.57-22.46,16.24v5.66c0,2.28-1.85,4.13-4.13,4.13h-4.06V279.8c0-15.42,12.55-27.97,27.97-27.97
				L443.99,251.83z M340.04,240.54v-26.67c0-0.1,0.08-0.19,0.19-0.19h26.67c0.1,0,0.19,0.08,0.19,0.19v26.67
				c0,0.1-0.08,0.19-0.19,0.19h-26.67C340.12,240.72,340.04,240.64,340.04,240.54z M340.04,309.06v-26.67c0-0.1,0.08-0.19,0.19-0.19
				h12.27v27.04h-12.27C340.12,309.24,340.04,309.16,340.04,309.06L340.04,309.06z M367.07,377.58c0,0.1-0.08,0.19-0.19,0.19h-26.67
				c-0.1,0-0.19-0.08-0.19-0.19v-26.67c0-0.1,0.08-0.19,0.19-0.19h24.31c0.67,2.6,1.52,5.13,2.54,7.57L367.07,377.58L367.07,377.58z
				 M375.24,339.49c-0.29-4.61-4.13-8.23-8.74-8.23c-0.89,0-1.62-0.73-1.62-1.62v-10.69h4.06c9.11,0,16.52-7.41,16.52-16.52v-5.66
				c0-3.18,3.1-5.49,6.2-4.46c17.59,5.81,36.97,5.81,54.56,0c3.04-1.01,6.19,1.25,6.19,4.47v5.65c0,9.11,7.41,16.52,16.52,16.52H473
				v10.69c0,0.89-0.73,1.62-1.62,1.62c-4.61,0-8.44,3.61-8.74,8.23c-1.45,22.99-20.65,41-43.7,41
				C395.88,380.49,376.69,362.48,375.24,339.49L375.24,339.49z M418.94,392.88c7.27,0,14.23-1.4,20.63-3.94v16.44l-20.13,15.59
				l-21.14-15.8v-16.23C404.71,391.48,411.67,392.88,418.94,392.88L418.94,392.88z M376.36,416.66c-0.34-0.34-0.18-0.86,0.19-1.03
				l7.64-3.43c1.09-0.49,2.37-0.35,3.33,0.37l22.01,16.45l-10.58,8.84c-0.43,0.36-1.06,0.34-1.47-0.04L376.36,416.66z
				 M416.69,462.88h4.52l9.34,52.66h-23.19L416.69,462.88z M209.74,443.26h48.25v72.29h-48.25V443.26z M550.93,542.55H167.42
				c-4.03,0-7.31-3.28-7.31-7.31c0-4.03,3.28-7.31,7.31-7.31h383.51c4.03,0,7.31,3.28,7.31,7.31S554.96,542.55,550.93,542.55
				L550.93,542.55z"/>
		</g>
	</g>
</g>
</svg>
