<?xml version="1.0" encoding="utf-8"?>
<!-- Generator: Adobe Illustrator 24.1.0, SVG Export Plug-In . SVG Version: 6.00 Build 0)  -->
<svg version="1.1" id="Capa_1" xmlns="http://www.w3.org/2000/svg" xmlns:xlink="http://www.w3.org/1999/xlink" x="0px" y="0px"
	 viewBox="0 0 512 512" style="enable-background:new 0 0 512 512;" xml:space="preserve">
<style type="text/css">
	.st0{fill:#C1272D;}
	.st1{fill:#FFE184;}
</style>
<g id="Flat">
	<path class="st0" d="M490.5,452.1c-7.1,12.4-20.3,20-34.6,19.9H56.1c-22.1,0-40-18-40-40.1c0-6.9,1.8-13.7,5.2-19.7l199.9-352
		c7-12.6,20.4-20.3,34.8-20.2c14.4-0.1,27.7,7.7,34.8,20.2l199.9,352C497.8,424.6,497.8,439.8,490.5,452.1L490.5,452.1z"/>
	<path class="st1" d="M56.1,440c-2.8,0.1-5.5-1.4-6.8-3.9c-1.6-2.4-1.6-5.5-0.2-8L249.1,76c1.3-2.6,4-4.1,6.9-4
		c2.9-0.1,5.6,1.5,7,4.1l199.9,352c1.5,2.4,1.5,5.4,0,7.8c-1.3,2.6-4,4.2-7,4.1L56.1,440z"/>
	<path d="M256,352c-9.8,0-18-7.5-18.9-17.3l-12.6-156.2c-1.6-17.4,11.2-32.8,28.6-34.4c1-0.1,1.9-0.1,2.9-0.1
		c17.5,0,31.6,14.2,31.6,31.6c0,1,0,1.9-0.1,2.9l-12.6,156.2C274,344.5,265.8,352,256,352z"/>
	<circle cx="256" cy="392" r="24"/>
</g>
</svg>
