<?xml version="1.0" encoding="utf-8"?>
<!-- Generator: Adobe Illustrator 24.1.0, SVG Export Plug-In . SVG Version: 6.00 Build 0)  -->
<svg version="1.1" id="Capa_1" xmlns="http://www.w3.org/2000/svg" xmlns:xlink="http://www.w3.org/1999/xlink" x="0px" y="0px"
	 viewBox="0 0 1920 1080" style="enable-background:new 0 0 1920 1080;" xml:space="preserve">
<style type="text/css">
	.st0{opacity:0.51;}
	.st1{opacity:0.79;clip-path:url(#SVGID_2_);fill:url(#SVGID_3_);}
	.st2{opacity:0.79;clip-path:url(#SVGID_2_);fill:url(#SVGID_4_);}
	.st3{opacity:0.79;clip-path:url(#SVGID_2_);fill:url(#SVGID_5_);}
	.st4{opacity:0.76;clip-path:url(#SVGID_2_);fill:url(#SVGID_6_);}
	.st5{opacity:0.76;clip-path:url(#SVGID_2_);fill:url(#SVGID_7_);}
	.st6{opacity:0.76;clip-path:url(#SVGID_2_);fill:url(#SVGID_8_);}
	.st7{clip-path:url(#SVGID_2_);fill:url(#SVGID_9_);}
	.st8{clip-path:url(#SVGID_2_);fill:url(#SVGID_10_);}
	.st9{clip-path:url(#SVGID_2_);fill:url(#SVGID_11_);}
	.st10{clip-path:url(#SVGID_2_);fill:url(#SVGID_12_);}
	.st11{clip-path:url(#SVGID_2_);fill:url(#SVGID_13_);}
	.st12{clip-path:url(#SVGID_2_);fill:url(#SVGID_14_);}
	.st13{clip-path:url(#SVGID_2_);fill:url(#SVGID_15_);}
	.st14{opacity:0.8;clip-path:url(#SVGID_2_);fill:url(#SVGID_16_);}
	.st15{clip-path:url(#SVGID_2_);}
	.st16{fill:url(#SVGID_17_);}
	.st17{fill:url(#SVGID_18_);}
	.st18{fill:url(#SVGID_19_);}
	.st19{fill:url(#SVGID_20_);}
	.st20{fill:url(#SVGID_21_);}
	.st21{fill:url(#SVGID_22_);}
	.st22{fill:url(#SVGID_23_);}
	.st23{fill:url(#SVGID_24_);}
	.st24{fill:url(#SVGID_25_);}
	.st25{fill:url(#SVGID_26_);}
	.st26{fill:url(#SVGID_27_);}
	.st27{fill:url(#SVGID_28_);}
	.st28{fill:url(#SVGID_29_);}
	.st29{fill:url(#SVGID_30_);}
	.st30{opacity:0.5;clip-path:url(#SVGID_2_);}
	.st31{fill:url(#SVGID_31_);}
	.st32{fill:url(#SVGID_32_);}
	.st33{fill:url(#SVGID_33_);}
	.st34{fill:url(#SVGID_34_);}
	.st35{fill:url(#SVGID_35_);}
	.st36{fill:url(#SVGID_36_);}
	.st37{fill:url(#SVGID_37_);}
	.st38{opacity:0.7;clip-path:url(#SVGID_2_);fill-rule:evenodd;clip-rule:evenodd;fill:url(#SVGID_38_);}
	.st39{clip-path:url(#SVGID_2_);fill-rule:evenodd;clip-rule:evenodd;fill:url(#SVGID_39_);}
	.st40{clip-path:url(#SVGID_2_);fill-rule:evenodd;clip-rule:evenodd;fill:url(#SVGID_40_);}
	.st41{opacity:0.3;clip-path:url(#SVGID_2_);fill-rule:evenodd;clip-rule:evenodd;fill:url(#SVGID_41_);}
	.st42{opacity:0.36;clip-path:url(#SVGID_2_);fill-rule:evenodd;clip-rule:evenodd;fill:url(#SVGID_42_);}
	.st43{clip-path:url(#SVGID_2_);fill-rule:evenodd;clip-rule:evenodd;fill:url(#SVGID_43_);}
	.st44{opacity:0.3;clip-path:url(#SVGID_2_);fill-rule:evenodd;clip-rule:evenodd;fill:url(#SVGID_44_);}
	.st45{opacity:0.5;clip-path:url(#SVGID_2_);fill-rule:evenodd;clip-rule:evenodd;fill:url(#SVGID_45_);}
	.st46{clip-path:url(#SVGID_2_);fill-rule:evenodd;clip-rule:evenodd;fill:url(#SVGID_46_);}
	.st47{opacity:0.8;clip-path:url(#SVGID_2_);fill-rule:evenodd;clip-rule:evenodd;fill:url(#SVGID_47_);}
	.st48{opacity:0.7;clip-path:url(#SVGID_2_);fill-rule:evenodd;clip-rule:evenodd;fill:url(#SVGID_48_);}
	.st49{opacity:0.3;clip-path:url(#SVGID_2_);fill-rule:evenodd;clip-rule:evenodd;fill:url(#SVGID_49_);}
	.st50{clip-path:url(#SVGID_2_);fill-rule:evenodd;clip-rule:evenodd;fill:url(#SVGID_50_);}
	.st51{opacity:0.36;clip-path:url(#SVGID_2_);fill-rule:evenodd;clip-rule:evenodd;fill:url(#SVGID_51_);}
	.st52{clip-path:url(#SVGID_2_);fill-rule:evenodd;clip-rule:evenodd;fill:url(#SVGID_52_);}
	.st53{opacity:0.79;clip-path:url(#SVGID_2_);fill:url(#SVGID_53_);}
	.st54{opacity:0.79;clip-path:url(#SVGID_2_);fill:url(#SVGID_54_);}
	.st55{opacity:0.79;clip-path:url(#SVGID_2_);fill:url(#SVGID_55_);}
	.st56{opacity:0.76;clip-path:url(#SVGID_2_);fill:url(#SVGID_56_);}
	.st57{clip-path:url(#SVGID_2_);fill:url(#SVGID_57_);}
	.st58{opacity:0.76;clip-path:url(#SVGID_2_);fill:url(#SVGID_58_);}
	.st59{clip-path:url(#SVGID_2_);fill:url(#SVGID_59_);}
	.st60{opacity:0.79;clip-path:url(#SVGID_2_);fill:url(#SVGID_60_);}
	.st61{opacity:0.79;clip-path:url(#SVGID_2_);fill:url(#SVGID_61_);}
	.st62{opacity:0.79;clip-path:url(#SVGID_2_);fill:url(#SVGID_62_);}
	.st63{clip-path:url(#SVGID_2_);fill:url(#SVGID_63_);}
	.st64{opacity:0.79;clip-path:url(#SVGID_2_);fill:url(#SVGID_64_);}
	.st65{opacity:0.79;clip-path:url(#SVGID_2_);fill:url(#SVGID_65_);}
	.st66{clip-path:url(#SVGID_2_);fill:url(#SVGID_66_);}
	.st67{fill:url(#SVGID_67_);}
	.st68{fill:url(#SVGID_68_);}
	.st69{fill:url(#SVGID_69_);}
	.st70{fill:url(#SVGID_70_);}
	.st71{fill:url(#SVGID_71_);}
	.st72{fill:url(#SVGID_72_);}
	.st73{fill:url(#SVGID_73_);}
	.st74{opacity:0.36;clip-path:url(#SVGID_2_);fill-rule:evenodd;clip-rule:evenodd;fill:url(#SVGID_74_);}
	.st75{clip-path:url(#SVGID_2_);fill-rule:evenodd;clip-rule:evenodd;fill:url(#SVGID_75_);}
	.st76{opacity:0.8;clip-path:url(#SVGID_2_);fill-rule:evenodd;clip-rule:evenodd;fill:url(#SVGID_76_);}
	.st77{opacity:0.3;clip-path:url(#SVGID_2_);fill-rule:evenodd;clip-rule:evenodd;fill:url(#SVGID_77_);}
</style>
<g class="st0">
	<defs>
		<polygon id="SVGID_1_" class="st0" points="1920,1080.2 0,1080 0,0 1920,0 		"/>
	</defs>
	<clipPath id="SVGID_2_">
		<use xlink:href="#SVGID_1_"  style="overflow:visible;"/>
	</clipPath>
	<linearGradient id="SVGID_3_" gradientUnits="userSpaceOnUse" x1="857.2301" y1="-532.0961" x2="2723.4077" y2="682.7563">
		<stop  offset="0" style="stop-color:#B6EAFD"/>
		<stop  offset="1" style="stop-color:#0592C6"/>
	</linearGradient>
	<path class="st1" d="M1533.42,73.4l333.65-137.22c8.97-3.69,19.25,0.59,22.94,9.57l0,0c3.69,8.98-0.59,19.26-9.57,22.95
		l-333.65,137.22c-8.98,3.7-19.26-0.59-22.95-9.57l0,0C1520.15,87.36,1524.44,77.09,1533.42,73.4z"/>
	<linearGradient id="SVGID_4_" gradientUnits="userSpaceOnUse" x1="851.9911" y1="-524.0476" x2="2718.1687" y2="690.805">
		<stop  offset="0" style="stop-color:#B6EAFD"/>
		<stop  offset="1" style="stop-color:#0592C6"/>
	</linearGradient>
	<path class="st2" d="M1688.36,185.72L2022.01,48.5c8.98-3.69,19.25,0.6,22.94,9.57l0,0c3.69,8.98-0.59,19.26-9.57,22.95
		l-333.65,137.22c-8.98,3.7-19.25-0.59-22.95-9.58l0,0C1675.09,199.69,1679.37,189.41,1688.36,185.72z"/>
	<linearGradient id="SVGID_5_" gradientUnits="userSpaceOnUse" x1="795.5934" y1="-437.412" x2="2661.7695" y2="777.4396">
		<stop  offset="0" style="stop-color:#B6EAFD"/>
		<stop  offset="1" style="stop-color:#0592C6"/>
	</linearGradient>
	<path class="st3" d="M1376.25,202.05l536.59-220.69c17.74-7.3,38.04,1.17,45.34,18.92l0,0c7.3,17.74-1.17,38.04-18.91,45.34
		l-536.59,220.69c-17.75,7.3-38.05-1.17-45.35-18.91l0,0C1350.03,229.66,1358.5,209.35,1376.25,202.05z"/>
	<linearGradient id="SVGID_6_" gradientUnits="userSpaceOnUse" x1="645.5124" y1="-39.4317" x2="2743.8059" y2="1326.5245">
		<stop  offset="0" style="stop-color:#B6EAFD"/>
		<stop  offset="1" style="stop-color:#0592C6"/>
	</linearGradient>
	<path class="st4" d="M462.99,135.74l603.33-248.14c19.95-8.21,42.78,1.32,50.98,21.27l0,0c8.21,19.95-1.32,42.78-21.27,50.98
		L492.71,207.99c-19.95,8.21-42.78-1.31-50.99-21.26l0,0C433.52,166.78,443.04,143.95,462.99,135.74z"/>
	<linearGradient id="SVGID_7_" gradientUnits="userSpaceOnUse" x1="211.4221" y1="74.5556" x2="1557.9172" y2="951.1029">
		<stop  offset="0" style="stop-color:#B6EAFD"/>
		<stop  offset="1" style="stop-color:#0592C6"/>
	</linearGradient>
	<path class="st5" d="M94.3,186.97L481.46,27.73c12.8-5.27,27.45,0.85,32.72,13.65l0,0c5.27,12.8-0.85,27.45-13.65,32.71
		L113.37,233.33c-12.81,5.27-27.45-0.84-32.72-13.65l0,0C75.38,206.88,81.49,192.23,94.3,186.97z"/>
	<linearGradient id="SVGID_8_" gradientUnits="userSpaceOnUse" x1="58.5667" y1="237.6013" x2="1405.0616" y2="1114.1486">
		<stop  offset="0" style="stop-color:#B6EAFD"/>
		<stop  offset="1" style="stop-color:#0592C6"/>
	</linearGradient>
	<path class="st6" d="M-58.56,350.01L328.6,190.78c12.8-5.27,27.45,0.85,32.72,13.65l0,0c5.27,12.8-0.85,27.45-13.65,32.71
		L-39.49,396.38c-12.8,5.27-27.45-0.84-32.72-13.65l0,0C-77.47,369.93-71.36,355.28-58.56,350.01z"/>
	<linearGradient id="SVGID_9_" gradientUnits="userSpaceOnUse" x1="-2.6221" y1="267.6223" x2="142.2968" y2="559.4726">
		<stop  offset="0" style="stop-color:#B6EAFD"/>
		<stop  offset="1" style="stop-color:#0592C6"/>
	</linearGradient>
	<line class="st7" x1="-261.78" y1="586.9" x2="413.66" y2="264.79"/>
	<linearGradient id="SVGID_10_" gradientUnits="userSpaceOnUse" x1="1443.2219" y1="-240.1673" x2="1588.1387" y2="51.6785">
		<stop  offset="0" style="stop-color:#B6EAFD"/>
		<stop  offset="1" style="stop-color:#0592C6"/>
	</linearGradient>
	<line class="st8" x1="1184.07" y1="79.11" x2="1859.51" y2="-243"/>
	<linearGradient id="SVGID_11_" gradientUnits="userSpaceOnUse" x1="2592.2" y1="-209.1817" x2="910.5864" y2="415.9341">
		<stop  offset="0" style="stop-color:#B6EAFD"/>
		<stop  offset="1" style="stop-color:#0592C6"/>
	</linearGradient>
	<polygon class="st9" points="1824.87,76.89 1819.92,76.89 1819.92,71.93 1816.69,71.93 1816.69,76.89 1811.73,76.89 1811.73,80.12 
		1816.69,80.12 1816.69,85.07 1819.92,85.07 1819.92,80.12 1824.87,80.12 	"/>
	<linearGradient id="SVGID_12_" gradientUnits="userSpaceOnUse" x1="1581.328" y1="146.9011" x2="-100.2842" y2="772.0165">
		<stop  offset="0" style="stop-color:#B6EAFD"/>
		<stop  offset="1" style="stop-color:#0592C6"/>
	</linearGradient>
	<polygon class="st10" points="933.39,388.59 928.43,388.59 928.43,383.64 925.2,383.64 925.2,388.59 920.25,388.59 920.25,391.82 
		925.2,391.82 925.2,396.78 928.43,396.78 928.43,391.82 933.39,391.82 	"/>
	<linearGradient id="SVGID_13_" gradientUnits="userSpaceOnUse" x1="1741.7241" y1="578.3548" x2="60.0912" y2="1203.4779">
		<stop  offset="0" style="stop-color:#B6EAFD"/>
		<stop  offset="1" style="stop-color:#0592C6"/>
	</linearGradient>
	<polygon class="st11" points="857.61,907.84 852.66,907.84 852.66,902.88 849.43,902.88 849.43,907.84 844.47,907.84 
		844.47,911.07 849.43,911.07 849.43,916.02 852.66,916.02 852.66,911.07 857.61,911.07 	"/>
	<linearGradient id="SVGID_14_" gradientUnits="userSpaceOnUse" x1="2179.259" y1="383.9037" x2="497.623" y2="1009.028">
		<stop  offset="0" style="stop-color:#B6EAFD"/>
		<stop  offset="1" style="stop-color:#0592C6"/>
	</linearGradient>
	<polygon class="st12" points="1555.41,617.09 1547.79,617.09 1547.79,609.47 1542.82,609.47 1542.82,617.09 1535.2,617.09 
		1535.2,622.05 1542.82,622.05 1542.82,629.67 1547.79,629.67 1547.79,622.05 1555.41,622.05 	"/>
	<linearGradient id="SVGID_15_" gradientUnits="userSpaceOnUse" x1="1307.3892" y1="558.7126" x2="-374.2424" y2="1183.8352">
		<stop  offset="0" style="stop-color:#B6EAFD"/>
		<stop  offset="1" style="stop-color:#0592C6"/>
	</linearGradient>
	<polygon class="st13" points="391.64,900.4 384.02,900.4 384.02,892.78 379.06,892.78 379.06,900.4 371.44,900.4 371.44,905.37 
		379.06,905.37 379.06,912.99 384.02,912.99 384.02,905.37 391.64,905.37 	"/>
	<linearGradient id="SVGID_16_" gradientUnits="userSpaceOnUse" x1="2372.0725" y1="96.9705" x2="690.4304" y2="722.097">
		<stop  offset="0" style="stop-color:#B6EAFD"/>
		<stop  offset="1" style="stop-color:#0592C6"/>
	</linearGradient>
	<polygon class="st14" points="1861.87,287.9 1854.25,287.9 1854.25,280.28 1849.29,280.28 1849.29,287.9 1841.66,287.9 
		1841.66,292.87 1849.29,292.87 1849.29,300.49 1854.25,300.49 1854.25,292.87 1861.87,292.87 	"/>
	<g class="st15">
		<g>
			<g>
				<linearGradient id="SVGID_17_" gradientUnits="userSpaceOnUse" x1="795.7794" y1="344.0641" x2="-45.0485" y2="656.6299">
					<stop  offset="0" style="stop-color:#B6EAFD"/>
					<stop  offset="1" style="stop-color:#0592C6"/>
				</linearGradient>
				<rect x="333.51" y="502.27" class="st16" width="1.87" height="26.58"/>
			</g>
			<g>
				<linearGradient id="SVGID_18_" gradientUnits="userSpaceOnUse" x1="796.3116" y1="345.5132" x2="-44.506" y2="658.0751">
					<stop  offset="0" style="stop-color:#B6EAFD"/>
					<stop  offset="1" style="stop-color:#0592C6"/>
				</linearGradient>
				<rect x="337.94" y="502.27" class="st17" width="1.87" height="26.58"/>
			</g>
			<g>
				<linearGradient id="SVGID_19_" gradientUnits="userSpaceOnUse" x1="796.8489" y1="346.9603" x2="-43.9687" y2="659.5223">
					<stop  offset="0" style="stop-color:#B6EAFD"/>
					<stop  offset="1" style="stop-color:#0592C6"/>
				</linearGradient>
				<rect x="342.37" y="502.27" class="st18" width="1.87" height="26.58"/>
			</g>
			<g>
				<linearGradient id="SVGID_20_" gradientUnits="userSpaceOnUse" x1="797.3873" y1="348.4071" x2="-43.4302" y2="660.9691">
					<stop  offset="0" style="stop-color:#B6EAFD"/>
					<stop  offset="1" style="stop-color:#0592C6"/>
				</linearGradient>
				<rect x="346.8" y="502.27" class="st19" width="1.87" height="26.58"/>
			</g>
			<g>
				<linearGradient id="SVGID_21_" gradientUnits="userSpaceOnUse" x1="797.9246" y1="349.8542" x2="-42.8929" y2="662.4162">
					<stop  offset="0" style="stop-color:#B6EAFD"/>
					<stop  offset="1" style="stop-color:#0592C6"/>
				</linearGradient>
				<rect x="351.23" y="502.27" class="st20" width="1.87" height="26.58"/>
			</g>
			<g>
				<linearGradient id="SVGID_22_" gradientUnits="userSpaceOnUse" x1="798.463" y1="351.301" x2="-42.3545" y2="663.863">
					<stop  offset="0" style="stop-color:#B6EAFD"/>
					<stop  offset="1" style="stop-color:#0592C6"/>
				</linearGradient>
				<rect x="355.66" y="502.27" class="st21" width="1.87" height="26.58"/>
			</g>
			<g>
				<linearGradient id="SVGID_23_" gradientUnits="userSpaceOnUse" x1="799.0004" y1="352.7482" x2="-41.8172" y2="665.3101">
					<stop  offset="0" style="stop-color:#B6EAFD"/>
					<stop  offset="1" style="stop-color:#0592C6"/>
				</linearGradient>
				<rect x="360.09" y="502.27" class="st22" width="1.87" height="26.58"/>
			</g>
		</g>
	</g>
	<g class="st15">
		<g>
			<linearGradient id="SVGID_24_" gradientUnits="userSpaceOnUse" x1="2333.9553" y1="563.3505" x2="652.3235" y2="1188.4731">
				<stop  offset="0" style="stop-color:#B6EAFD"/>
				<stop  offset="1" style="stop-color:#0592C6"/>
			</linearGradient>
			<rect x="1587.92" y="827.04" class="st23" width="1.87" height="26.58"/>
		</g>
		<g>
			<linearGradient id="SVGID_25_" gradientUnits="userSpaceOnUse" x1="2334.4851" y1="564.8005" x2="652.8704" y2="1189.9167">
				<stop  offset="0" style="stop-color:#B6EAFD"/>
				<stop  offset="1" style="stop-color:#0592C6"/>
			</linearGradient>
			<rect x="1592.35" y="827.04" class="st24" width="1.87" height="26.58"/>
		</g>
		<g>
			<linearGradient id="SVGID_26_" gradientUnits="userSpaceOnUse" x1="2335.0225" y1="566.2476" x2="653.4079" y2="1191.3639">
				<stop  offset="0" style="stop-color:#B6EAFD"/>
				<stop  offset="1" style="stop-color:#0592C6"/>
			</linearGradient>
			<rect x="1596.78" y="827.04" class="st25" width="1.87" height="26.58"/>
		</g>
		<g>
			<linearGradient id="SVGID_27_" gradientUnits="userSpaceOnUse" x1="2335.5681" y1="567.6917" x2="653.9385" y2="1192.8135">
				<stop  offset="0" style="stop-color:#B6EAFD"/>
				<stop  offset="1" style="stop-color:#0592C6"/>
			</linearGradient>
			<rect x="1601.21" y="827.04" class="st26" width="1.87" height="26.58"/>
		</g>
		<g>
			<linearGradient id="SVGID_28_" gradientUnits="userSpaceOnUse" x1="2336.1077" y1="569.1381" x2="654.4738" y2="1194.2615">
				<stop  offset="0" style="stop-color:#B6EAFD"/>
				<stop  offset="1" style="stop-color:#0592C6"/>
			</linearGradient>
			<rect x="1605.64" y="827.04" class="st27" width="1.87" height="26.58"/>
		</g>
		<g>
			<linearGradient id="SVGID_29_" gradientUnits="userSpaceOnUse" x1="2336.6306" y1="570.5906" x2="655.0297" y2="1195.7018">
				<stop  offset="0" style="stop-color:#B6EAFD"/>
				<stop  offset="1" style="stop-color:#0592C6"/>
			</linearGradient>
			<rect x="1610.07" y="827.04" class="st28" width="1.87" height="26.58"/>
		</g>
		<g>
			<linearGradient id="SVGID_30_" gradientUnits="userSpaceOnUse" x1="2337.1743" y1="572.0353" x2="655.5598" y2="1197.1516">
				<stop  offset="0" style="stop-color:#B6EAFD"/>
				<stop  offset="1" style="stop-color:#0592C6"/>
			</linearGradient>
			<rect x="1614.5" y="827.04" class="st29" width="1.87" height="26.58"/>
		</g>
	</g>
	<g class="st30">
		<g>
			<linearGradient id="SVGID_31_" gradientUnits="userSpaceOnUse" x1="1763.839" y1="-121.803" x2="82.2081" y2="503.3193">
				<stop  offset="0" style="stop-color:#B6EAFD"/>
				<stop  offset="1" style="stop-color:#0592C6"/>
			</linearGradient>
			<rect x="1247.46" y="64.28" class="st31" width="26.58" height="1.87"/>
		</g>
		<g>
			<linearGradient id="SVGID_32_" gradientUnits="userSpaceOnUse" x1="1765.2878" y1="-117.9112" x2="83.6521" y2="507.213">
				<stop  offset="0" style="stop-color:#B6EAFD"/>
				<stop  offset="1" style="stop-color:#0592C6"/>
			</linearGradient>
			<rect x="1247.46" y="68.71" class="st32" width="26.58" height="1.87"/>
		</g>
		<g>
			<linearGradient id="SVGID_33_" gradientUnits="userSpaceOnUse" x1="1766.7314" y1="-114.0174" x2="85.1005" y2="511.1049">
				<stop  offset="0" style="stop-color:#B6EAFD"/>
				<stop  offset="1" style="stop-color:#0592C6"/>
			</linearGradient>
			<rect x="1247.46" y="73.14" class="st33" width="26.58" height="1.87"/>
		</g>
		<g>
			<linearGradient id="SVGID_34_" gradientUnits="userSpaceOnUse" x1="1768.1779" y1="-110.1249" x2="86.5493" y2="514.9966">
				<stop  offset="0" style="stop-color:#B6EAFD"/>
				<stop  offset="1" style="stop-color:#0592C6"/>
			</linearGradient>
			<rect x="1247.46" y="77.57" class="st34" width="26.58" height="1.87"/>
		</g>
		<g>
			<linearGradient id="SVGID_35_" gradientUnits="userSpaceOnUse" x1="1769.6268" y1="-106.233" x2="87.9933" y2="518.8903">
				<stop  offset="0" style="stop-color:#B6EAFD"/>
				<stop  offset="1" style="stop-color:#0592C6"/>
			</linearGradient>
			<rect x="1247.46" y="82" class="st35" width="26.58" height="1.87"/>
		</g>
		<g>
			<linearGradient id="SVGID_36_" gradientUnits="userSpaceOnUse" x1="1771.0751" y1="-102.3412" x2="89.4393" y2="522.783">
				<stop  offset="0" style="stop-color:#B6EAFD"/>
				<stop  offset="1" style="stop-color:#0592C6"/>
			</linearGradient>
			<rect x="1247.46" y="86.43" class="st36" width="26.58" height="1.87"/>
		</g>
		<g>
			<linearGradient id="SVGID_37_" gradientUnits="userSpaceOnUse" x1="1772.5225" y1="-98.4489" x2="90.8867" y2="526.6752">
				<stop  offset="0" style="stop-color:#B6EAFD"/>
				<stop  offset="1" style="stop-color:#0592C6"/>
			</linearGradient>
			<rect x="1247.46" y="90.86" class="st37" width="26.58" height="1.87"/>
		</g>
	</g>
	<linearGradient id="SVGID_38_" gradientUnits="userSpaceOnUse" x1="1591.855" y1="590.6013" x2="-89.7762" y2="1215.7238">
		<stop  offset="0" style="stop-color:#B6EAFD"/>
		<stop  offset="1" style="stop-color:#0592C6"/>
	</linearGradient>
	<polygon class="st38" points="600.49,978.35 581.29,947.05 619.69,947.05 	"/>
	<linearGradient id="SVGID_39_" gradientUnits="userSpaceOnUse" x1="1358.506" y1="694.1614" x2="517.6904" y2="1006.7226">
		<stop  offset="0" style="stop-color:#B6EAFD"/>
		<stop  offset="1" style="stop-color:#0592C6"/>
	</linearGradient>
	<polygon class="st39" points="949.05,855.98 939.45,840.33 958.65,840.33 	"/>
	<linearGradient id="SVGID_40_" gradientUnits="userSpaceOnUse" x1="1888.9503" y1="874.4489" x2="1048.125" y2="1187.0138">
		<stop  offset="0" style="stop-color:#B6EAFD"/>
		<stop  offset="1" style="stop-color:#0592C6"/>
	</linearGradient>
	<polygon class="st40" points="1631.15,976.1 1615.5,985.7 1615.5,966.5 	"/>
	<linearGradient id="SVGID_41_" gradientUnits="userSpaceOnUse" x1="1179.0713" y1="58.1175" x2="-502.56" y2="683.2399">
		<stop  offset="0" style="stop-color:#B6EAFD"/>
		<stop  offset="1" style="stop-color:#0592C6"/>
	</linearGradient>
	<polygon class="st41" points="478.53,299.32 497.73,330.62 459.33,330.62 	"/>
	<linearGradient id="SVGID_42_" gradientUnits="userSpaceOnUse" x1="1992.545" y1="76.4757" x2="310.9057" y2="701.6011">
		<stop  offset="0" style="stop-color:#B6EAFD"/>
		<stop  offset="1" style="stop-color:#0592C6"/>
	</linearGradient>
	<polygon class="st42" points="1536.48,239.45 1554.12,228.63 1554.12,250.27 	"/>
	<linearGradient id="SVGID_43_" gradientUnits="userSpaceOnUse" x1="1845.2122" y1="-21.9738" x2="163.5854" y2="603.147">
		<stop  offset="0" style="stop-color:#B6EAFD"/>
		<stop  offset="1" style="stop-color:#0592C6"/>
	</linearGradient>
	<path class="st43" d="M1211.69,198.89L1211.69,198.89c-8.09,0-14.64,6.56-14.64,14.64c0,8.09,6.56,14.64,14.64,14.64h0
		c8.09,0,14.64-6.56,14.64-14.64S1219.77,198.89,1211.69,198.89z M1211.69,224.31L1211.69,224.31c-5.95,0-10.78-4.83-10.78-10.78
		c0-5.95,4.83-10.78,10.78-10.78h0c5.95,0,10.78,4.83,10.78,10.78C1222.47,219.48,1217.64,224.31,1211.69,224.31z"/>
	<linearGradient id="SVGID_44_" gradientUnits="userSpaceOnUse" x1="2659.7058" y1="306.1633" x2="978.0734" y2="931.2863">
		<stop  offset="0" style="stop-color:#B6EAFD"/>
		<stop  offset="1" style="stop-color:#0592C6"/>
	</linearGradient>
	<path class="st44" d="M1770.52,618.22L1770.52,618.22c-10.21,0-18.49,8.28-18.49,18.48c0,10.21,8.28,18.48,18.48,18.48h0
		c10.21,0,18.48-8.28,18.48-18.48C1789,626.5,1780.73,618.22,1770.52,618.22z M1770.52,650.32L1770.52,650.32
		c-7.52,0-13.61-6.1-13.61-13.61c0-7.51,6.09-13.61,13.61-13.61h0c7.52,0,13.61,6.1,13.61,13.61
		C1784.13,644.22,1778.04,650.31,1770.52,650.32z"/>
	<linearGradient id="SVGID_45_" gradientUnits="userSpaceOnUse" x1="1781.0182" y1="742.5049" x2="99.3871" y2="1367.6273">
		<stop  offset="0" style="stop-color:#B6EAFD"/>
		<stop  offset="1" style="stop-color:#0592C6"/>
	</linearGradient>
	<path class="st45" d="M1126.81,969.65L1126.81,969.65c-8.86,0-16.05,7.19-16.05,16.05c0,8.86,7.19,16.05,16.05,16.05h0
		c8.86,0,16.05-7.19,16.05-16.05S1135.67,969.65,1126.81,969.65z M1126.81,997.52L1126.81,997.52c-6.53,0-11.82-5.29-11.82-11.82
		c0-6.52,5.29-11.82,11.81-11.82h0c6.52,0,11.82,5.29,11.82,11.82C1138.62,992.22,1133.33,997.51,1126.81,997.52z"/>
	<linearGradient id="SVGID_46_" gradientUnits="userSpaceOnUse" x1="1753.0836" y1="582.0688" x2="71.4569" y2="1207.1896">
		<stop  offset="0" style="stop-color:#B6EAFD"/>
		<stop  offset="1" style="stop-color:#0592C6"/>
	</linearGradient>
	<path class="st46" d="M766.69,939.51L766.69,939.51c-5.1,0-9.24,4.14-9.24,9.24c0,5.1,4.14,9.24,9.24,9.24h0
		c5.1,0,9.24-4.14,9.24-9.24C775.93,943.64,771.79,939.51,766.69,939.51z M766.69,955.55L766.69,955.55c-3.76,0-6.8-3.05-6.8-6.81
		c0-3.76,3.05-6.8,6.8-6.8h0c3.76,0,6.81,3.05,6.81,6.8C773.49,952.5,770.45,955.55,766.69,955.55z"/>
	<linearGradient id="SVGID_47_" gradientUnits="userSpaceOnUse" x1="1016.4234" y1="-73.3123" x2="-665.2045" y2="551.809">
		<stop  offset="0" style="stop-color:#B6EAFD"/>
		<stop  offset="1" style="stop-color:#0592C6"/>
	</linearGradient>
	<path class="st47" d="M534.47,87.36L534.47,87.36c-10.21,0-18.49,8.28-18.49,18.48c0,10.21,8.28,18.48,18.48,18.48h0
		c10.21,0,18.48-8.28,18.48-18.48S544.67,87.37,534.47,87.36z M534.47,119.46L534.47,119.46c-7.52,0-13.61-6.1-13.61-13.61
		c0-7.51,6.09-13.61,13.61-13.61h0c7.52,0,13.61,6.1,13.61,13.61C548.08,113.36,541.98,119.46,534.47,119.46z"/>
	<linearGradient id="SVGID_48_" gradientUnits="userSpaceOnUse" x1="1498.4529" y1="179.6753" x2="-183.1794" y2="804.7981">
		<stop  offset="0" style="stop-color:#B6EAFD"/>
		<stop  offset="1" style="stop-color:#0592C6"/>
	</linearGradient>
	<path class="st48" d="M702.16,459.15h-16.54v33.08h16.54h16.54v-33.08H702.16z M712.86,486.39h-10.7h-10.7v-21.41h10.7h10.7V486.39
		z"/>
	<linearGradient id="SVGID_49_" gradientUnits="userSpaceOnUse" x1="1508.2313" y1="-15.8264" x2="-173.3926" y2="609.2933">
		<stop  offset="0" style="stop-color:#B6EAFD"/>
		<stop  offset="1" style="stop-color:#0592C6"/>
	</linearGradient>
	<path class="st49" d="M920.25,191.97h-10.78v21.56h10.78h10.78v-21.56H920.25z M927.22,209.72h-6.97h-6.97v-13.95h6.97h6.97V209.72
		z"/>
	<linearGradient id="SVGID_50_" gradientUnits="userSpaceOnUse" x1="1777.0151" y1="673.2843" x2="95.3784" y2="1298.4088">
		<stop  offset="0" style="stop-color:#B6EAFD"/>
		<stop  offset="1" style="stop-color:#0592C6"/>
	</linearGradient>
	<path class="st50" d="M1017.23,944.94h-10.78v21.56h10.78h10.78v-21.56H1017.23z M1024.21,962.7h-6.97h-6.97v-13.95h6.97h6.97
		V962.7z"/>
	<linearGradient id="SVGID_51_" gradientUnits="userSpaceOnUse" x1="1403.0946" y1="291.6441" x2="-278.5361" y2="916.7664">
		<stop  offset="0" style="stop-color:#B6EAFD"/>
		<stop  offset="1" style="stop-color:#0592C6"/>
	</linearGradient>
	<path class="st51" d="M459.33,631.7h-10.78v21.56h10.78h10.78V631.7H459.33z M466.3,649.45h-6.97h-6.97V635.5h6.97h6.97V649.45z"/>
	<linearGradient id="SVGID_52_" gradientUnits="userSpaceOnUse" x1="2242.0635" y1="601.5478" x2="560.4389" y2="1226.6677">
		<stop  offset="0" style="stop-color:#B6EAFD"/>
		<stop  offset="1" style="stop-color:#0592C6"/>
	</linearGradient>
	<path class="st52" d="M1824.87,745.85h-10.78v21.56h10.78h10.78v-21.56H1824.87z M1831.85,763.61h-6.97h-6.97v-13.95h6.97h6.97
		V763.61z"/>
	<linearGradient id="SVGID_53_" gradientUnits="userSpaceOnUse" x1="857.2301" y1="547.9039" x2="2723.4077" y2="1762.7563">
		<stop  offset="0" style="stop-color:#B6EAFD"/>
		<stop  offset="1" style="stop-color:#0592C6"/>
	</linearGradient>
	<path class="st53" d="M1533.42,1153.4l333.65-137.22c8.97-3.69,19.25,0.59,22.94,9.57l0,0c3.69,8.98-0.59,19.26-9.57,22.95
		l-333.65,137.22c-8.98,3.7-19.26-0.59-22.95-9.57l0,0C1520.15,1167.36,1524.44,1157.09,1533.42,1153.4z"/>
	<linearGradient id="SVGID_54_" gradientUnits="userSpaceOnUse" x1="851.9911" y1="555.9524" x2="2718.1687" y2="1770.8049">
		<stop  offset="0" style="stop-color:#B6EAFD"/>
		<stop  offset="1" style="stop-color:#0592C6"/>
	</linearGradient>
	<path class="st54" d="M1688.36,1265.72l333.65-137.22c8.98-3.69,19.25,0.6,22.94,9.57l0,0c3.69,8.98-0.59,19.26-9.57,22.95
		l-333.65,137.22c-8.98,3.7-19.25-0.59-22.95-9.58l0,0C1675.09,1279.69,1679.37,1269.41,1688.36,1265.72z"/>
	<linearGradient id="SVGID_55_" gradientUnits="userSpaceOnUse" x1="795.5934" y1="642.588" x2="2661.7695" y2="1857.4396">
		<stop  offset="0" style="stop-color:#B6EAFD"/>
		<stop  offset="1" style="stop-color:#0592C6"/>
	</linearGradient>
	<path class="st55" d="M1376.25,1282.05l536.59-220.69c17.74-7.3,38.04,1.17,45.34,18.92l0,0c7.3,17.74-1.17,38.04-18.91,45.34
		l-536.59,220.69c-17.75,7.3-38.05-1.17-45.35-18.91l0,0C1350.03,1309.66,1358.5,1289.35,1376.25,1282.05z"/>
	<linearGradient id="SVGID_56_" gradientUnits="userSpaceOnUse" x1="645.5124" y1="1040.5682" x2="2743.8059" y2="2406.5247">
		<stop  offset="0" style="stop-color:#B6EAFD"/>
		<stop  offset="1" style="stop-color:#0592C6"/>
	</linearGradient>
	<path class="st56" d="M462.99,1215.74l603.33-248.14c19.95-8.21,42.78,1.32,50.98,21.27l0,0c8.21,19.95-1.32,42.78-21.27,50.98
		l-603.33,248.14c-19.95,8.21-42.78-1.31-50.99-21.26l0,0C433.52,1246.78,443.04,1223.95,462.99,1215.74z"/>
	<linearGradient id="SVGID_57_" gradientUnits="userSpaceOnUse" x1="1443.2219" y1="839.8327" x2="1588.1387" y2="1131.6785">
		<stop  offset="0" style="stop-color:#B6EAFD"/>
		<stop  offset="1" style="stop-color:#0592C6"/>
	</linearGradient>
	<line class="st57" x1="1184.07" y1="1159.11" x2="1859.51" y2="837"/>
	<linearGradient id="SVGID_58_" gradientUnits="userSpaceOnUse" x1="1976.5668" y1="237.6013" x2="3323.0618" y2="1114.1486">
		<stop  offset="0" style="stop-color:#B6EAFD"/>
		<stop  offset="1" style="stop-color:#0592C6"/>
	</linearGradient>
	<path class="st58" d="M1859.44,350.01l387.16-159.23c12.8-5.27,27.45,0.85,32.72,13.65l0,0c5.27,12.8-0.84,27.45-13.65,32.71
		l-387.16,159.23c-12.8,5.27-27.45-0.84-32.72-13.65l0,0C1840.53,369.93,1846.64,355.28,1859.44,350.01z"/>
	<linearGradient id="SVGID_59_" gradientUnits="userSpaceOnUse" x1="1915.3779" y1="267.6223" x2="2060.2969" y2="559.4726">
		<stop  offset="0" style="stop-color:#B6EAFD"/>
		<stop  offset="1" style="stop-color:#0592C6"/>
	</linearGradient>
	<line class="st59" x1="1656.22" y1="586.9" x2="2331.66" y2="264.79"/>
	<linearGradient id="SVGID_60_" gradientUnits="userSpaceOnUse" x1="-1061.7699" y1="-532.0961" x2="804.4077" y2="682.7563">
		<stop  offset="0" style="stop-color:#B6EAFD"/>
		<stop  offset="1" style="stop-color:#0592C6"/>
	</linearGradient>
	<path class="st60" d="M-385.58,73.4L-51.93-63.83c8.97-3.69,19.25,0.59,22.94,9.57l0,0c3.69,8.98-0.59,19.26-9.57,22.95
		l-333.65,137.22c-8.98,3.7-19.26-0.59-22.95-9.57l0,0C-398.85,87.36-394.56,77.09-385.58,73.4z"/>
	<linearGradient id="SVGID_61_" gradientUnits="userSpaceOnUse" x1="-1067.0089" y1="-524.0476" x2="799.1688" y2="690.805">
		<stop  offset="0" style="stop-color:#B6EAFD"/>
		<stop  offset="1" style="stop-color:#0592C6"/>
	</linearGradient>
	<path class="st61" d="M-230.64,185.72L103.01,48.5c8.98-3.69,19.25,0.6,22.94,9.57l0,0c3.69,8.98-0.59,19.26-9.57,22.95
		l-333.65,137.22c-8.98,3.7-19.25-0.59-22.95-9.58l0,0C-243.91,199.69-239.63,189.41-230.64,185.72z"/>
	<linearGradient id="SVGID_62_" gradientUnits="userSpaceOnUse" x1="-1123.4066" y1="-437.412" x2="742.7697" y2="777.4396">
		<stop  offset="0" style="stop-color:#B6EAFD"/>
		<stop  offset="1" style="stop-color:#0592C6"/>
	</linearGradient>
	<path class="st62" d="M-542.75,202.05L-6.16-18.63c17.74-7.3,38.04,1.17,45.34,18.92l0,0c7.3,17.74-1.17,38.04-18.91,45.34
		l-536.59,220.69c-17.75,7.3-38.05-1.17-45.35-18.91l0,0C-568.97,229.66-560.5,209.35-542.75,202.05z"/>
	<linearGradient id="SVGID_63_" gradientUnits="userSpaceOnUse" x1="673.1999" y1="-209.1817" x2="-1008.4136" y2="415.9341">
		<stop  offset="0" style="stop-color:#B6EAFD"/>
		<stop  offset="1" style="stop-color:#0592C6"/>
	</linearGradient>
	<polygon class="st63" points="-94.13,76.89 -99.08,76.89 -99.08,71.93 -102.31,71.93 -102.31,76.89 -107.27,76.89 -107.27,80.12 
		-102.31,80.12 -102.31,85.07 -99.08,85.07 -99.08,80.12 -94.13,80.12 	"/>
	<linearGradient id="SVGID_64_" gradientUnits="userSpaceOnUse" x1="-1061.7699" y1="547.9039" x2="804.4077" y2="1762.7563">
		<stop  offset="0" style="stop-color:#B6EAFD"/>
		<stop  offset="1" style="stop-color:#0592C6"/>
	</linearGradient>
	<path class="st64" d="M-385.58,1153.4l333.65-137.22c8.97-3.69,19.25,0.59,22.94,9.57l0,0c3.69,8.98-0.59,19.26-9.57,22.95
		l-333.65,137.22c-8.98,3.7-19.26-0.59-22.95-9.57l0,0C-398.85,1167.36-394.56,1157.09-385.58,1153.4z"/>
	<linearGradient id="SVGID_65_" gradientUnits="userSpaceOnUse" x1="-1123.4066" y1="642.588" x2="742.7697" y2="1857.4396">
		<stop  offset="0" style="stop-color:#B6EAFD"/>
		<stop  offset="1" style="stop-color:#0592C6"/>
	</linearGradient>
	<path class="st65" d="M-542.75,1282.05l536.59-220.69c17.74-7.3,38.04,1.17,45.34,18.92l0,0c7.3,17.74-1.17,38.04-18.91,45.34
		l-536.59,220.69c-17.75,7.3-38.05-1.17-45.35-18.91l0,0C-568.97,1309.66-560.5,1289.35-542.75,1282.05z"/>
	<linearGradient id="SVGID_66_" gradientUnits="userSpaceOnUse" x1="2592.2" y1="870.8182" x2="910.5864" y2="1495.9341">
		<stop  offset="0" style="stop-color:#B6EAFD"/>
		<stop  offset="1" style="stop-color:#0592C6"/>
	</linearGradient>
	<polygon class="st66" points="1824.87,1156.89 1819.92,1156.89 1819.92,1151.93 1816.69,1151.93 1816.69,1156.89 1811.73,1156.89 
		1811.73,1160.12 1816.69,1160.12 1816.69,1165.07 1819.92,1165.07 1819.92,1160.12 1824.87,1160.12 	"/>
	<g class="st30">
		<g>
			<linearGradient id="SVGID_67_" gradientUnits="userSpaceOnUse" x1="1763.839" y1="958.197" x2="82.2081" y2="1583.3193">
				<stop  offset="0" style="stop-color:#B6EAFD"/>
				<stop  offset="1" style="stop-color:#0592C6"/>
			</linearGradient>
			<rect x="1247.46" y="1144.28" class="st67" width="26.58" height="1.87"/>
		</g>
		<g>
			<linearGradient id="SVGID_68_" gradientUnits="userSpaceOnUse" x1="1765.2878" y1="962.0888" x2="83.6521" y2="1587.2129">
				<stop  offset="0" style="stop-color:#B6EAFD"/>
				<stop  offset="1" style="stop-color:#0592C6"/>
			</linearGradient>
			<rect x="1247.46" y="1148.71" class="st68" width="26.58" height="1.87"/>
		</g>
		<g>
			<linearGradient id="SVGID_69_" gradientUnits="userSpaceOnUse" x1="1766.7314" y1="965.9826" x2="85.1005" y2="1591.105">
				<stop  offset="0" style="stop-color:#B6EAFD"/>
				<stop  offset="1" style="stop-color:#0592C6"/>
			</linearGradient>
			<rect x="1247.46" y="1153.14" class="st69" width="26.58" height="1.87"/>
		</g>
		<g>
			<linearGradient id="SVGID_70_" gradientUnits="userSpaceOnUse" x1="1768.1779" y1="969.8751" x2="86.5493" y2="1594.9966">
				<stop  offset="0" style="stop-color:#B6EAFD"/>
				<stop  offset="1" style="stop-color:#0592C6"/>
			</linearGradient>
			<rect x="1247.46" y="1157.57" class="st70" width="26.58" height="1.87"/>
		</g>
		<g>
			<linearGradient id="SVGID_71_" gradientUnits="userSpaceOnUse" x1="1769.6268" y1="973.767" x2="87.9933" y2="1598.8903">
				<stop  offset="0" style="stop-color:#B6EAFD"/>
				<stop  offset="1" style="stop-color:#0592C6"/>
			</linearGradient>
			<rect x="1247.46" y="1162" class="st71" width="26.58" height="1.87"/>
		</g>
		<g>
			<linearGradient id="SVGID_72_" gradientUnits="userSpaceOnUse" x1="1771.0751" y1="977.6588" x2="89.4393" y2="1602.783">
				<stop  offset="0" style="stop-color:#B6EAFD"/>
				<stop  offset="1" style="stop-color:#0592C6"/>
			</linearGradient>
			<rect x="1247.46" y="1166.43" class="st72" width="26.58" height="1.87"/>
		</g>
		<g>
			<linearGradient id="SVGID_73_" gradientUnits="userSpaceOnUse" x1="1772.5225" y1="981.5511" x2="90.8867" y2="1606.6752">
				<stop  offset="0" style="stop-color:#B6EAFD"/>
				<stop  offset="1" style="stop-color:#0592C6"/>
			</linearGradient>
			<rect x="1247.46" y="1170.86" class="st73" width="26.58" height="1.87"/>
		</g>
	</g>
	<linearGradient id="SVGID_74_" gradientUnits="userSpaceOnUse" x1="1992.545" y1="1156.4757" x2="310.9057" y2="1781.6011">
		<stop  offset="0" style="stop-color:#B6EAFD"/>
		<stop  offset="1" style="stop-color:#0592C6"/>
	</linearGradient>
	<polygon class="st74" points="1536.48,1319.45 1554.12,1308.63 1554.12,1330.27 	"/>
	<linearGradient id="SVGID_75_" gradientUnits="userSpaceOnUse" x1="1845.2122" y1="1058.0262" x2="163.5854" y2="1683.147">
		<stop  offset="0" style="stop-color:#B6EAFD"/>
		<stop  offset="1" style="stop-color:#0592C6"/>
	</linearGradient>
	<path class="st75" d="M1211.69,1278.89L1211.69,1278.89c-8.09,0-14.64,6.56-14.64,14.64c0,8.09,6.56,14.64,14.64,14.64h0
		c8.09,0,14.64-6.56,14.64-14.64S1219.77,1278.89,1211.69,1278.89z M1211.69,1304.31L1211.69,1304.31
		c-5.95,0-10.78-4.83-10.78-10.78s4.83-10.78,10.78-10.78h0c5.95,0,10.78,4.83,10.78,10.78S1217.64,1304.31,1211.69,1304.31z"/>
	<linearGradient id="SVGID_76_" gradientUnits="userSpaceOnUse" x1="1016.4234" y1="1006.6877" x2="-665.2045" y2="1631.809">
		<stop  offset="0" style="stop-color:#B6EAFD"/>
		<stop  offset="1" style="stop-color:#0592C6"/>
	</linearGradient>
	<path class="st76" d="M534.47,1167.36L534.47,1167.36c-10.21,0-18.49,8.28-18.49,18.48c0,10.21,8.28,18.48,18.48,18.48h0
		c10.21,0,18.48-8.28,18.48-18.48C552.95,1175.64,544.67,1167.37,534.47,1167.36z M534.47,1199.46L534.47,1199.46
		c-7.52,0-13.61-6.1-13.61-13.61c0-7.52,6.09-13.61,13.61-13.61h0c7.52,0,13.61,6.1,13.61,13.61
		C548.08,1193.36,541.98,1199.46,534.47,1199.46z"/>
	<linearGradient id="SVGID_77_" gradientUnits="userSpaceOnUse" x1="1508.2313" y1="1064.1736" x2="-173.3926" y2="1689.2933">
		<stop  offset="0" style="stop-color:#B6EAFD"/>
		<stop  offset="1" style="stop-color:#0592C6"/>
	</linearGradient>
	<path class="st77" d="M920.25,1271.97h-10.78v21.56h10.78h10.78v-21.56H920.25z M927.22,1289.72h-6.97h-6.97v-13.95h6.97h6.97
		V1289.72z"/>
</g>
</svg>
