<?xml version="1.0" encoding="utf-8"?>
<!-- Generator: Adobe Illustrator 24.1.0, SVG Export Plug-In . SVG Version: 6.00 Build 0)  -->
<svg version="1.1" id="Capa_1" xmlns="http://www.w3.org/2000/svg" xmlns:xlink="http://www.w3.org/1999/xlink" x="0px" y="0px"
	 viewBox="0 0 700 700" style="enable-background:new 0 0 700 700;" xml:space="preserve">
<style type="text/css">
	.st0{opacity:0.79;}
	.st1{fill:#FFFFFF;}
	.st2{fill:url(#SVGID_1_);}
	.st3{fill:#212121;}
</style>
<g class="st0">
	<circle class="st1" cx="350.14" cy="349.89" r="337.38"/>
	<linearGradient id="SVGID_1_" gradientUnits="userSpaceOnUse" x1="0.1446" y1="349.8916" x2="700.1446" y2="349.8916">
		<stop  offset="0" style="stop-color:#B6EAFD"/>
		<stop  offset="1" style="stop-color:#0592C6"/>
	</linearGradient>
	<path class="st2" d="M350.14,699.89c-47.24,0-93.08-9.26-136.24-27.51c-41.68-17.63-79.11-42.86-111.25-75
		c-32.14-32.14-57.37-69.57-75-111.25c-18.25-43.16-27.51-89-27.51-136.24s9.26-93.08,27.51-136.24
		c17.63-41.68,42.86-79.11,75-111.25c32.14-32.14,69.57-57.37,111.25-75c43.16-18.25,89-27.51,136.24-27.51s93.08,9.26,136.24,27.51
		c41.68,17.63,79.11,42.86,111.25,75c32.14,32.14,57.37,69.57,75,111.25c18.25,43.16,27.51,89,27.51,136.24
		s-9.26,93.08-27.51,136.24c-17.63,41.68-42.86,79.11-75,111.25c-32.14,32.14-69.57,57.37-111.25,75
		C443.23,690.64,397.39,699.89,350.14,699.89z M350.14,25.13c-86.75,0-168.3,33.78-229.64,95.12S25.39,263.15,25.39,349.89
		s33.78,168.3,95.12,229.64s142.89,95.12,229.64,95.12s168.3-33.78,229.64-95.12s95.12-142.89,95.12-229.64
		s-33.78-168.3-95.12-229.64S436.89,25.13,350.14,25.13z"/>
</g>
<g>
	<path class="st3" d="M489.87,466.35L387.2,446.17c-1.2-2.95-2.02-6.04-2.46-9.21c-0.85-6.21-0.16-12.6,2.01-18.48l1.13-3.07
		c1.16-0.82,2.28-1.68,3.39-2.57c39.05-31.59,58.86-59.98,58.86-84.39c0-2.55-0.11-5.11-0.31-7.62c0-0.03-0.01-0.07-0.01-0.1
		c-0.14-1.38-0.25-3.29-0.35-5.67c13.23-3.54,23.24-17.43,23.41-33.97c0.03-2.96-0.24-5.85-0.81-8.66
		c8.63-3.73,14.68-12.32,14.68-22.3v-11.72c0-3.65-2.96-6.61-6.61-6.61h-19.77v-27.81c0-48.95-39.83-88.77-88.79-88.77h-0.23v-8.05
		c0-3.65-2.96-6.61-6.61-6.61h-29.01c-3.65,0-6.61,2.96-6.61,6.61v8.05h-1.61c-48.96,0-88.79,39.82-88.79,88.77v27.81h-19.37
		c-3.65,0-6.61,2.96-6.61,6.61v11.72c0,10.24,6.37,19.01,15.35,22.58c-0.54,2.74-0.8,5.56-0.77,8.38
		c0.16,16.45,10.07,30.28,23.19,33.91c-0.11,2.41-0.24,4.39-0.39,5.86c-0.21,2.36-0.32,4.92-0.32,7.6
		c0,24.4,19.79,52.78,58.82,84.35c0.91,0.74,1.84,1.46,2.79,2.15l1.3,3.53c2.17,5.88,2.86,12.28,2.01,18.49
		c-0.44,3.17-1.26,6.25-2.46,9.2l-101.8,20.16c-28.45,5.51-49.1,30.53-49.1,59.5v19.28c0,3.65,2.96,6.61,6.61,6.61h209.98
		c3.65,0,6.61-2.96,6.61-6.61c0-3.65-2.96-6.61-6.61-6.61H269.35v-19.27h161.22v19.27h-21.62c-3.65,0-6.61,2.96-6.61,6.61
		c0,3.65,2.96,6.61,6.61,6.61h123.4c3.65,0,6.61-2.96,6.61-6.61v-19.28C538.95,496.87,518.3,471.85,489.87,466.35L489.87,466.35z
		 M466.81,506.02h-23.03v-35.26l23.03,4.52V506.02z M459.64,280.96c-0.09,9.08-4.43,16.88-10.51,20.13
		c-0.08-7.44-0.08-16.48,0-26.68h9.8C459.43,276.53,459.67,278.74,459.64,280.96L459.64,280.96z M371.56,128.44
		c39.44,0,71.93,30.37,75.29,68.94h-28.24c-3.65,0-6.61,2.96-6.61,6.61c0,3.65,2.96,6.61,6.61,6.61h28.52v21.2h-75.81V128.44H371.56
		z M342.32,210.6h15.79v21.2h-15.79L342.32,210.6z M358.11,113.78v83.6h-15.79v-83.6H358.11z M251.92,210.6h28.52
		c3.65,0,6.61-2.96,6.61-6.61c0-3.65-2.96-6.61-6.61-6.61h-28.24c3.36-38.58,35.84-68.94,75.29-68.94h1.61V231.8h-77.18V210.6z
		 M240.52,280.96c-0.02-2.22,0.22-4.43,0.7-6.55h9.78c0.05,9.91,0.01,19-0.11,26.6C244.88,297.72,240.61,289.97,240.52,280.96z
		 M263,328.46c0-2.29,0.09-4.46,0.26-6.37c0.84-8.52,1.04-29.11,0.94-47.68h14.97c3.65,0,6.61-2.96,6.61-6.61
		c0-3.65-2.96-6.61-6.61-6.61h-42.17c-6.1,0-11.07-4.96-11.07-11.06v-5.11h247.57v5.11c0,6.1-4.97,11.06-11.07,11.06H310.08
		c-3.65,0-6.61,2.96-6.61,6.61c0,3.65,2.96,6.61,6.61,6.61h125.84c-0.12,14.76-0.15,38.58,0.72,47.57c0.18,2.13,0.26,4.31,0.26,6.48
		c0,19.93-18.66,45.56-53.96,74.12c-9.26,7.53-20.92,11.66-32.86,11.66c-0.08,0-0.16,0-0.24,0c-11.96,0-23.64-4.15-32.92-11.7
		C281.65,374.01,263,348.39,263,328.46L263,328.46z M349.82,427.46h0.29c7.42,0,14.76-1.28,21.68-3.72
		c-0.78,4.96-0.84,10.04-0.15,15.02c0.7,5.09,2.15,10.02,4.3,14.67c-0.75,13.82-12.23,24.83-26.23,24.83
		c-6.88,0-13.39-2.64-18.32-7.44c-4.78-4.65-7.56-10.78-7.91-17.38c2.16-4.65,3.6-9.57,4.3-14.66c0.7-5.05,0.63-10.2-0.18-15.22
		C334.7,426.12,342.22,427.46,349.82,427.46L349.82,427.46z M233.1,475.33l23.03-4.56v35.26H233.1V475.33z M174.56,538.51v-12.67
		c0-22.65,16.14-42.21,38.42-46.52l6.91-1.37v60.56H174.56z M256.13,538.39H233.1v-19.15h23.03V538.39z M269.35,506.02v-37.87
		l41.67-8.25c1.55,7.71,5.39,14.78,11.17,20.4c7.41,7.21,17.19,11.18,27.54,11.18c19.07,0,35.03-13.59,38.69-31.6l42.15,8.28v37.86
		L269.35,506.02L269.35,506.02z M466.81,519.24v19.15h-23.03v-19.15H466.81z M525.73,538.51h-45.7v-60.63l7.31,1.44
		c22.24,4.3,38.39,23.87,38.39,46.52V538.51z"/>
	<path class="st3" d="M349.72,374.94c14.04,0,26.38-9.46,30.01-23c0.94-3.53-1.15-7.15-4.67-8.09c-3.53-0.95-7.15,1.15-8.09,4.67
		c-2.08,7.77-9.17,13.2-17.24,13.2c-8.06,0-15.15-5.43-17.23-13.2c-0.94-3.53-4.57-5.62-8.09-4.67c-3.53,0.94-5.62,4.57-4.67,8.09
		C323.35,365.48,335.68,374.94,349.72,374.94L349.72,374.94z"/>
</g>
</svg>
